<svg width="20" height="20" viewBox="0 0 20 20" fill="none" xmlns="http://www.w3.org/2000/svg">
<path fill-rule="evenodd" clip-rule="evenodd" d="M8.93359 0.144756C9.63139 -0.0482518 10.3686 -0.0482518 11.0664 0.144756C11.8576 0.363642 12.5712 0.934898 13.998 2.0764L17.5977 4.95628C18.4795 5.66178 18.9208 6.01457 19.2383 6.45237C19.5195 6.84026 19.7292 7.27566 19.8564 7.73753C20.0001 8.25894 20 8.824 20 9.95335V13.4778C20 15.7177 20.0003 16.838 19.5645 17.6936C19.181 18.4461 18.5689 19.0581 17.8164 19.4416C16.9608 19.8776 15.8398 19.8782 13.5996 19.8782H6.40039C4.16018 19.8782 3.03924 19.8776 2.18359 19.4416C1.43113 19.0581 0.818972 18.4461 0.435547 17.6936C-0.000294894 16.838 5.5293e-10 15.7177 5.38421e-10 13.4778V9.95335C2.29004e-09 8.824 -8.59946e-05 8.25894 0.143555 7.73753C0.270828 7.27566 0.48054 6.84026 0.761719 6.45237C1.07916 6.01457 1.52047 5.66178 2.40234 4.95628L6.00195 2.0764C7.42883 0.934897 8.14238 0.363642 8.93359 0.144756ZM8 12.8772C7.44788 12.8772 7.00026 13.3251 7 13.8772C7 14.4295 7.44772 14.8772 8 14.8772H12C12.5521 14.8772 12.9997 14.4302 13 13.8782C13 13.3259 12.5523 12.8772 12 12.8772H8Z" fill="#FEFEFE"/>
</svg>
