<svg width="22" height="22" viewBox="0 0 22 22" fill="none" xmlns="http://www.w3.org/2000/svg">
<path fill-rule="evenodd" clip-rule="evenodd" d="M15.5 0C16.4282 2.50208e-05 17.3183 0.369035 17.9746 1.02539C18.631 1.68176 19 2.57176 19 3.5C19 4.0255 18.8809 4.53838 18.6592 5.00391C20.5183 5.08713 22 6.62036 22 8.5C22 9.89618 21.1825 11.1013 20 11.6631V17C20 19.7614 17.7614 22 15 22H7C4.32472 22 2.14053 19.8989 2.00684 17.2568L2 17V11.6631C0.817547 11.1013 0 9.89618 0 8.5C0 6.62068 1.48119 5.08762 3.33984 5.00391C3.11823 4.53847 3 4.02537 3 3.5C3 2.57174 3.36901 1.68177 4.02539 1.02539C4.68177 0.369013 5.57174 0 6.5 0C8.8061 0 10.1924 1.66213 10.9385 3.01855C10.9596 3.0569 10.9797 3.09553 11 3.13379C11.0203 3.09554 11.0404 3.05688 11.0615 3.01855C11.8076 1.66214 13.1939 0 15.5 0ZM4 17L4.00391 17.1543C4.08421 18.7394 5.39489 20 7 20H10V12H4V17ZM12 20H15C16.6569 20 18 18.6569 18 17V12H12V20ZM3.5 7C2.67157 7 2 7.67157 2 8.5C2 9.32843 2.67157 10 3.5 10H10V7H3.5ZM12 10H18.5C19.3284 10 20 9.32843 20 8.5C20 7.67157 19.3284 7 18.5 7H12V10ZM6.5 2C6.10218 2 5.72076 2.15815 5.43945 2.43945C5.15815 2.72076 5 3.10218 5 3.5C5 3.89782 5.15815 4.27924 5.43945 4.56055C5.72076 4.84185 6.10218 5 6.5 5H9.65234C9.5303 4.68076 9.37754 4.32874 9.18652 3.98145C8.55757 2.838 7.69381 2 6.5 2ZM15.5 2C14.3062 2 13.4424 2.83803 12.8135 3.98145C12.6225 4.32873 12.4697 4.68077 12.3477 5H15.5C15.8978 4.99998 16.2793 4.84183 16.5605 4.56055C16.8418 4.27925 17 3.8978 17 3.5C17 3.1022 16.8418 2.72075 16.5605 2.43945C16.2793 2.15817 15.8978 2.00003 15.5 2Z" fill="currentColor" fill-opacity="0.6"/>
</svg>
