<svg width="29" height="25" viewBox="0 0 29 25" fill="none" xmlns="http://www.w3.org/2000/svg">
<path d="M17.0582 1.31146L16.3368 2.00399L16.3368 2.004L17.0582 1.31146ZM27.0709 11.7411L27.7923 11.0486L27.7923 11.0486L27.0709 11.7411ZM27.0709 12.2949L27.7923 12.9874L27.7924 12.9873L27.0709 12.2949ZM17.0582 22.7245L16.3368 22.032L16.3368 22.032L17.0582 22.7245ZM15.3365 17.0263H16.3365V15.9924L15.3032 16.0269L15.3365 17.0263ZM4.70764 23.0429L3.91141 22.4379L3.9114 22.4379L4.70764 23.0429ZM1.01526 21.9726L0.0222432 21.8546L0.0222427 21.8546L1.01526 21.9726ZM15.3365 7.06342L15.3964 8.06162L16.3365 8.00523V7.06342H15.3365ZM15.3365 2.00385H16.3365L16.3368 2.00399L17.0582 1.31146L17.7796 0.618931C16.5324 -0.680269 14.3365 0.20171 14.3365 2.00385H15.3365ZM17.0582 1.31146L16.3368 2.004L26.3495 12.4337L27.0709 11.7411L27.7923 11.0486L17.7796 0.618924L17.0582 1.31146ZM27.0709 11.7411L26.3495 12.4337C26.1265 12.2014 26.1267 11.8345 26.3494 11.6024L27.0709 12.2949L27.7924 12.9873C28.3122 12.4457 28.3125 11.5905 27.7923 11.0486L27.0709 11.7411ZM27.0709 12.2949L26.3495 11.6023L16.3368 22.032L17.0582 22.7245L17.7796 23.4171L27.7923 12.9874L27.0709 12.2949ZM17.0582 22.7245L16.3368 22.032L16.3365 22.0322H15.3365H14.3365C14.3365 23.8343 16.5324 24.7163 17.7796 23.4171L17.0582 22.7245ZM15.3365 22.0322H16.3365V17.0263H15.3365H14.3365V22.0322H15.3365ZM15.3365 17.0263L15.3032 16.0269C10.2378 16.196 6.69975 18.7682 3.91141 22.4379L4.70764 23.0429L5.50387 23.6479C8.05047 20.2963 11.0823 18.1689 15.3699 18.0257L15.3365 17.0263ZM4.70764 23.0429L3.9114 22.4379C3.55433 22.9079 3.00053 23.0378 2.56746 22.92C2.35599 22.8625 2.20766 22.7549 2.1212 22.6373C2.04299 22.5309 1.97575 22.3644 2.00827 22.0906L1.01526 21.9726L0.0222427 21.8546C-0.0663062 22.5999 0.112242 23.281 0.509634 23.8217C0.898774 24.3512 1.45585 24.6903 2.04254 24.8499C3.20576 25.1663 4.61923 24.8122 5.50388 23.6479L4.70764 23.0429ZM1.01526 21.9726L2.00827 22.0906C2.65578 16.6408 4.48993 13.2676 6.83816 11.2004C9.1957 9.12499 12.1988 8.25341 15.3964 8.06162L15.3365 7.06342L15.2767 6.06521C11.8085 6.27323 8.31919 7.23205 5.51664 9.69919C2.70478 12.1745 0.711196 16.056 0.0222432 21.8546L1.01526 21.9726ZM15.3365 7.06342H16.3365V2.00385H15.3365H14.3365V7.06342H15.3365Z" fill="#FEFEFE"/>
</svg>
