<svg width="24" height="24" viewBox="0 0 24 24" fill="none" xmlns="http://www.w3.org/2000/svg">
<path d="M16 7C16 4.79086 14.2091 3 12 3C9.79086 3 8 4.79086 8 7C8 9.20914 9.79086 11 12 11C14.2091 11 16 9.20914 16 7ZM18 7C18 10.3137 15.3137 13 12 13C8.68629 13 6 10.3137 6 7C6 3.68629 8.68629 1 12 1C15.3137 1 18 3.68629 18 7Z" fill="currentColor" fill-opacity="0.6"/>
<path d="M19.5897 22C19.5897 18.8645 16.3894 16 11.9999 16C7.61046 16.0001 4.41003 18.8645 4.41003 22C4.41003 22.5523 3.96232 23 3.41003 23C2.85775 23 2.41003 22.5523 2.41003 22C2.41003 17.3956 6.90944 14.0001 11.9999 14C17.0904 14 21.5897 17.3955 21.5897 22C21.5897 22.5523 21.142 23 20.5897 23C20.0376 22.9998 19.5897 22.5522 19.5897 22Z" fill="currentColor" fill-opacity="0.6"/>
</svg>
