<svg width="22" height="22" viewBox="0 0 22 22" fill="none" xmlns="http://www.w3.org/2000/svg">
<path d="M20.0001 10.9534C20.0001 9.76859 19.9919 9.36371 19.8926 9.00325C19.7972 8.65682 19.6397 8.33033 19.4288 8.03938C19.2093 7.73662 18.899 7.47691 17.9737 6.73665L14.3731 3.85676C13.6484 3.27699 13.146 2.8754 12.7276 2.58821C12.3199 2.30839 12.0472 2.17715 11.7999 2.10872C11.2764 1.96391 10.7237 1.96391 10.2002 2.10872C9.95287 2.17715 9.68025 2.30839 9.27252 2.58821C8.85411 2.8754 8.35172 3.27699 7.62701 3.85676L4.02642 6.73665C3.10109 7.47691 2.79081 7.73662 2.57134 8.03938C2.36046 8.33033 2.20291 8.65682 2.10748 9.00325C2.00823 9.36371 2.00005 9.76859 2.00005 10.9534V14.4769C2.00005 15.6133 2.00046 16.406 2.05084 17.0228C2.10028 17.6279 2.19302 17.9762 2.3272 18.2396C2.61478 18.8038 3.07353 19.2625 3.63775 19.5501C3.9011 19.6843 4.24938 19.777 4.85455 19.8265C5.47135 19.8769 6.26401 19.8773 7.40044 19.8773H14.5997C15.7361 19.8773 16.5288 19.8769 17.1456 19.8265C17.7507 19.777 18.099 19.6843 18.3624 19.5501C18.9266 19.2625 19.3853 18.8038 19.6729 18.2396C19.8071 17.9762 19.8998 17.6279 19.9493 17.0228C19.9996 16.406 20.0001 15.6133 20.0001 14.4769V10.9534ZM22.0001 14.4769C22.0001 15.5805 22.001 16.4687 21.9424 17.1859C21.8829 17.9146 21.7568 18.5546 21.4551 19.1468C20.9758 20.0876 20.2104 20.853 19.2696 21.3323C18.6774 21.634 18.0374 21.7601 17.3086 21.8197C16.5915 21.8782 15.7032 21.8773 14.5997 21.8773H7.40044C6.29686 21.8773 5.40863 21.8782 4.69146 21.8197C3.96276 21.7601 3.32272 21.634 2.73052 21.3323C1.78971 20.853 1.02434 20.0876 0.544976 19.1468C0.243318 18.5546 0.117209 17.9146 0.0576712 17.1859C-0.000920523 16.4687 5.39856e-05 15.5805 5.39856e-05 14.4769V10.9534C5.39856e-05 9.87953 -0.00820965 9.15436 0.179741 8.472C0.33882 7.89455 0.600669 7.35051 0.952202 6.86555C1.36762 6.29249 1.9388 5.846 2.7774 5.17512L6.37701 2.29524C7.07911 1.73355 7.64786 1.27804 8.14068 0.939772C8.6438 0.594455 9.12341 0.331378 9.66705 0.180983C10.5394 -0.0603278 11.4607 -0.0603278 12.3331 0.180983C12.8767 0.331378 13.3563 0.594455 13.8594 0.939772C14.3523 1.27804 14.921 1.73355 15.6231 2.29524L19.2227 5.17512C20.0613 5.846 20.6325 6.29249 21.0479 6.86555C21.3994 7.35051 21.6613 7.89455 21.8204 8.472C22.0083 9.15436 22.0001 9.87953 22.0001 10.9534V14.4769Z" fill="currentColor" fill-opacity="0.6"/>
<path d="M9.00005 13.8773H13.0001C13.5523 13.8773 14.0001 14.325 14.0001 14.8773C14.0001 15.4296 13.5523 15.8773 13.0001 15.8773H9.00005C8.44777 15.8773 8.00005 15.4296 8.00005 14.8773C8.00005 14.325 8.44777 13.8773 9.00005 13.8773Z" fill="currentColor" fill-opacity="0.6"/>
</svg>
