<svg width="13" height="14" viewBox="0 0 13 14" fill="none" xmlns="http://www.w3.org/2000/svg">
<path d="M10.3481 9.54564C11.8407 8.7114 12.587 8.29428 12.8367 7.74831C13.0544 7.27217 13.0544 6.72783 12.8367 6.25169C12.587 5.70572 11.8407 5.2886 10.3481 4.45436L4.48477 1.17725C3.01202 0.354103 2.27565 -0.0574703 1.67184 0.00646782C1.14512 0.0622387 0.667166 0.333533 0.356331 0.753172C-1.01516e-07 1.23423 -7.40772e-08 2.06378 0 3.72288L2.92974e-07 10.2771C3.67118e-07 11.9362 4.06065e-07 12.7658 0.356332 13.2468C0.667166 13.6665 1.14512 13.9378 1.67184 13.9935C2.27565 14.0575 3.01202 13.6459 4.48477 12.8228L10.3481 9.54564Z" fill="#FEFEFE"/>
</svg>
