<svg width="9" height="11" viewBox="0 0 9 11" fill="none" xmlns="http://www.w3.org/2000/svg">
<path d="M2.41113 0.865015C2.6626 0.132181 3.51358 -0.310564 4.03711 0.260523C4.51061 0.777136 4.94946 1.42618 5.14258 2.15798C5.32106 2.83472 5.35399 3.48264 5.3291 4.01638C5.29853 4.67157 5.75774 5.06526 6.20312 4.58377C6.35905 4.41519 6.50279 4.22302 6.6123 4.01541C6.89294 3.48361 7.72766 3.25596 8.00781 3.78787C8.31981 4.38088 8.57129 5.16392 8.57129 6.10525C8.57113 7.97105 7.46319 9.53529 5.75684 10.0779C6.09057 9.74058 6.28613 9.27864 6.28613 8.76541C6.2861 8.33982 6.16667 7.9863 6.01953 7.71951C5.8867 7.47904 5.50327 7.58697 5.37109 7.82791C5.30793 7.94304 5.2204 8.04736 5.12793 8.13455C4.93584 8.31563 4.75151 8.14987 4.76953 7.8865C4.78659 7.6367 4.77565 7.32349 4.68555 6.9949C4.58426 6.62564 4.33822 6.30301 4.08691 6.05935C3.86658 5.84574 3.53293 6.0259 3.44238 6.31912C3.1444 7.28428 2.28613 7.78708 2.28613 8.8699C2.28618 9.32038 2.45756 9.71163 2.74414 10.0115C1.12929 9.45796 0 8.09868 0 6.33669C0.000143897 4.00431 1.71966 2.88003 2.41113 0.865015Z" fill="#FEFEFE"/>
</svg>
