<svg width="15" height="13" viewBox="0 0 15 13" fill="none" xmlns="http://www.w3.org/2000/svg">
<path d="M8.39995 11.3852V11.6682C8.39963 12.2831 7.663 12.5992 7.21733 12.1754L4.71401 9.79311C4.58391 9.66933 4.41097 9.60037 4.23139 9.60034H1.39995C1.01345 9.60034 0.700121 9.28679 0.699947 8.90034V4.40024C0.699947 4.20317 0.78149 4.02501 0.912545 3.8978L8.39995 11.3852Z" fill="#FEFEFE"/>
<path d="M0.205025 0.205025C0.478392 -0.0683418 0.921502 -0.0683417 1.19487 0.205025L4.5896 3.59975C4.6338 3.57338 4.67616 3.54346 4.71401 3.50747L7.21733 1.12514C7.66308 0.701047 8.39993 1.01712 8.39995 1.63237V7.4101L11.6949 10.705C11.9682 10.9784 11.9682 11.4215 11.6949 11.6949C11.4215 11.9682 10.9784 11.9682 10.705 11.6949L8.39995 9.38979V9.40483L2.69536 3.70024H2.7104L0.205025 1.19487C-0.0683417 0.921502 -0.0683418 0.478392 0.205025 0.205025Z" fill="#FEFEFE"/>
<path d="M11.8965 2.32758C12.1573 2.04242 12.5997 2.0226 12.885 2.28315C14.0383 3.33686 14.6999 4.78014 14.6999 6.29995C14.6999 7.81976 14.0383 9.26303 12.885 10.3167L11.941 9.28315C12.8198 8.48016 13.2999 7.40551 13.2999 6.29995C13.2999 5.19438 12.8198 4.11974 11.941 3.31674C11.6556 3.05597 11.6358 2.61299 11.8965 2.32758Z" fill="#FEFEFE"/>
<path d="M9.98315 4.07553C10.2439 3.79014 10.6869 3.76968 10.9723 4.03042C11.6175 4.61989 11.9935 5.43384 11.9936 6.29721C11.9936 7.16058 11.6174 7.97449 10.9723 8.56401L10.0276 7.53042C10.3984 7.1916 10.5936 6.74643 10.5936 6.29721C10.5935 5.84807 10.3983 5.40276 10.0276 5.06401C9.74244 4.80325 9.72258 4.36087 9.98315 4.07553Z" fill="#FEFEFE"/>
</svg>
