<svg width="21" height="21" viewBox="0 0 21 21" fill="none" xmlns="http://www.w3.org/2000/svg">
<path fill-rule="evenodd" clip-rule="evenodd" d="M20.9492 7C20.9963 7.91914 21 9.04783 21 10.5C21 13.7616 20.9996 15.3923 20.4668 16.6787C19.7563 18.3939 18.3939 19.7563 16.6787 20.4668C15.3923 20.9996 13.7616 21 10.5 21C7.23841 21 5.60769 20.9996 4.32129 20.4668C2.60614 19.7563 1.24366 18.3939 0.533203 16.6787C0.000359833 15.3923 0 13.7616 0 10.5C0 9.04783 0.00367335 7.91914 0.0507812 7H20.9492ZM9.50391 10.377C8.83727 9.98818 8 10.4695 8 11.2412V14.7588C8 15.5305 8.83727 16.0118 9.50391 15.623L12.5195 13.8643C13.181 13.4784 13.181 12.5216 12.5195 12.1357L9.50391 10.377Z" fill="currentColor"/>
<path d="M0.310547 5C0.372254 4.76038 0.444351 4.5358 0.533203 4.32129C1.24366 2.60614 2.60614 1.24366 4.32129 0.533203C4.67842 0.385275 5.06226 0.279382 5.5 0.202148V5H0.310547Z" fill="currentColor"/>
<path d="M8 0.015625C8.7128 0.00178018 9.535 0 10.5 0C11.2471 0 11.9086 0.00137988 12.5 0.0078125V5H8V0.015625Z" fill="currentColor"/>
<path d="M15 0.12793C15.6554 0.205893 16.1917 0.331493 16.6787 0.533203C18.3939 1.24366 19.7563 2.60614 20.4668 4.32129C20.5556 4.5358 20.6277 4.76038 20.6895 5H15V0.12793Z" fill="currentColor"/>
</svg>
